<svg width="25" height="24" viewBox="0 0 25 24" fill="none" xmlns="http://www.w3.org/2000/svg">
<g clip-path="url(#clip0_1_1161)">
<path d="M4.5 2.00977H20.5C20.7652 2.00977 21.0196 2.11512 21.2071 2.30266C21.3946 2.4902 21.5 2.74455 21.5 3.00977V21.0098C21.5 21.275 21.3946 21.5293 21.2071 21.7169C21.0196 21.9044 20.7652 22.0098 20.5 22.0098H4.5C4.23478 22.0098 3.98043 21.9044 3.79289 21.7169C3.60536 21.5293 3.5 21.275 3.5 21.0098V3.00977C3.5 2.74455 3.60536 2.4902 3.79289 2.30266C3.98043 2.11512 4.23478 2.00977 4.5 2.00977ZM5.5 4.00977V20.0098H19.5V4.00977H5.5ZM7.5 6.00977H17.5V10.0098H7.5V6.00977ZM7.5 12.0098H9.5V14.0098H7.5V12.0098ZM7.5 16.0098H9.5V18.0098H7.5V16.0098ZM11.5 12.0098H13.5V14.0098H11.5V12.0098ZM11.5 16.0098H13.5V18.0098H11.5V16.0098ZM15.5 12.0098H17.5V18.0098H15.5V12.0098Z" fill="white"/>
</g>
<defs>
<clipPath id="clip0_1_1161">
<rect width="24" height="24" fill="white" transform="translate(0.5 0.00976562)"/>
</clipPath>
</defs>
</svg>
