<svg width="31" height="43" viewBox="0 0 31 43" fill="none" xmlns="http://www.w3.org/2000/svg">
<path fill-rule="evenodd" clip-rule="evenodd" d="M30.1575 31.7731C30.1575 31.6173 30.1575 31.4616 30.1575 31.3058C30.1928 30.5992 30.0348 29.8963 29.7006 29.2741C29.5763 29.0461 29.3928 28.8565 29.1699 28.7255C28.9468 28.597 28.6944 28.5293 28.4375 28.5291C28.1119 28.5378 27.7925 28.6212 27.5036 28.7729C27.2165 28.923 26.9663 29.1359 26.7713 29.396C25.3973 31.1211 23.921 32.7607 22.3505 34.306C21.6342 35.1345 20.6522 35.6833 19.5757 35.8569C19.2317 35.8793 18.889 35.7962 18.5928 35.6185C18.2966 35.4408 18.0607 35.1768 17.9162 34.8613C17.5392 33.9586 17.3715 32.9812 17.4257 32.0034C17.6486 28.882 18.1432 25.7864 18.9038 22.7523C19.3693 21.1173 19.62 19.4279 19.6496 17.7271C19.662 17.335 19.5909 16.9448 19.4413 16.5826C19.287 16.2199 19.058 15.8944 18.7694 15.6277C18.4857 15.3581 18.1488 15.1518 17.7807 15.0223C17.4125 14.8928 17.0215 14.8429 16.6329 14.876C15.5943 14.7736 14.5561 15.0758 13.7315 15.7206C12.9069 16.3654 12.3585 17.3039 12.1986 18.3434C11.5172 20.5421 11.0051 22.7904 10.6668 25.0684C10.2457 27.4482 10.0098 29.8574 9.96133 32.2743C9.83759 34.9238 10.4694 37.5537 11.7821 39.8526C12.2238 40.5675 12.812 41.179 13.5072 41.6462C14.2024 42.1134 14.9887 42.4255 15.8132 42.5615H15.4101C12.1498 42.5524 8.97581 41.5041 6.34235 39.5665C3.7089 37.6289 1.75089 34.9014 0.748484 31.7741C-0.253924 28.6468 -0.249367 25.2801 0.761504 22.1556C1.77237 19.0311 3.73776 16.3089 6.37645 14.3786C9.01515 12.4483 12.1919 11.4087 15.4523 11.4086C18.7127 11.4085 21.8895 12.4478 24.5283 14.378C27.1672 16.3081 29.1327 19.0302 30.1438 22.1546C31.1549 25.279 31.1597 28.6458 30.1575 31.7731ZM18.2185 8.57087C19.4846 8.63111 20.7254 8.19966 21.6853 7.36538C22.1209 6.94277 22.4602 6.42977 22.6797 5.86191C22.9013 5.30046 23.002 4.69797 22.9753 4.09432C23.0033 3.59929 22.9135 3.10469 22.7133 2.6518C22.5128 2.1985 22.209 1.79937 21.8264 1.48695C20.956 0.844258 19.8944 0.519421 18.8165 0.5659C17.5647 0.537235 16.3466 0.976256 15.3967 1.79848C14.9544 2.16342 14.6024 2.62715 14.3687 3.15295C14.1273 3.66944 14.0055 4.23451 14.0127 4.80542C13.9855 5.31896 14.0654 5.83253 14.2471 6.31308C14.4287 6.79363 14.7082 7.23053 15.0675 7.59565C15.9606 8.31514 17.0924 8.66395 18.2319 8.57087H18.2185Z" fill="#20DDA4"/>
</svg>
